G04 Layer: TopSilkLayer*
G04 EasyEDA v6.4.25, 2021-12-11T01:25:18+11:00*
G04 a67cddfb3fce44daa9051d46cbbcc19f,10*
G04 Gerber Generator version 0.2*
G04 Scale: 100 percent, Rotated: No, Reflected: No *
G04 Dimensions in inches *
G04 leading zeros omitted , absolute positions ,3 integer and 6 decimal *
%FSLAX36Y36*%
%MOIN*%

%ADD10C,0.0100*%
%ADD15C,0.0080*%

%LPD*%
D15*
X534600Y25000D02*
G01*
X572800Y39499D01*
X534600Y54099D02*
G01*
X572800Y39499D01*
X543699Y93400D02*
G01*
X540100Y91500D01*
X536500Y87899D01*
X534600Y84299D01*
X534600Y76999D01*
X536500Y73400D01*
X540100Y69699D01*
X543699Y67899D01*
X549200Y66100D01*
X558299Y66100D01*
X563699Y67899D01*
X567399Y69699D01*
X570999Y73400D01*
X572800Y76999D01*
X572800Y84299D01*
X570999Y87899D01*
X567399Y91500D01*
X563699Y93400D01*
X543699Y132600D02*
G01*
X540100Y130799D01*
X536500Y127199D01*
X534600Y123499D01*
X534600Y116300D01*
X536500Y112600D01*
X540100Y109000D01*
X543699Y107199D01*
X549200Y105399D01*
X558299Y105399D01*
X563699Y107199D01*
X567399Y109000D01*
X570999Y112600D01*
X572800Y116300D01*
X572800Y123499D01*
X570999Y127199D01*
X567399Y130799D01*
X563699Y132600D01*
X443699Y52300D02*
G01*
X440100Y50500D01*
X436500Y46799D01*
X434600Y43200D01*
X434600Y35900D01*
X436500Y32300D01*
X440100Y28600D01*
X443699Y26799D01*
X449200Y25000D01*
X458299Y25000D01*
X463699Y26799D01*
X467399Y28600D01*
X470999Y32300D01*
X472800Y35900D01*
X472800Y43200D01*
X470999Y46799D01*
X467399Y50500D01*
X463699Y52300D01*
X458299Y52300D01*
X458299Y43200D02*
G01*
X458299Y52300D01*
X434600Y64299D02*
G01*
X472800Y64299D01*
X434600Y64299D02*
G01*
X472800Y89699D01*
X434600Y89699D02*
G01*
X472800Y89699D01*
X434600Y101700D02*
G01*
X472800Y101700D01*
X434600Y101700D02*
G01*
X434600Y114499D01*
X436500Y119899D01*
X440100Y123499D01*
X443699Y125399D01*
X449200Y127199D01*
X458299Y127199D01*
X463699Y125399D01*
X467399Y123499D01*
X470999Y119899D01*
X472800Y114499D01*
X472800Y101700D01*
X534600Y475000D02*
G01*
X572800Y489499D01*
X534600Y504099D02*
G01*
X572800Y489499D01*
X543699Y543400D02*
G01*
X540100Y541500D01*
X536500Y537899D01*
X534600Y534299D01*
X534600Y526999D01*
X536500Y523400D01*
X540100Y519699D01*
X543699Y517899D01*
X549200Y516100D01*
X558299Y516100D01*
X563699Y517899D01*
X567399Y519699D01*
X570999Y523400D01*
X572800Y526999D01*
X572800Y534299D01*
X570999Y537899D01*
X567399Y541500D01*
X563699Y543400D01*
X543699Y582600D02*
G01*
X540100Y580799D01*
X536500Y577199D01*
X534600Y573499D01*
X534600Y566300D01*
X536500Y562600D01*
X540100Y559000D01*
X543699Y557199D01*
X549200Y555399D01*
X558299Y555399D01*
X563699Y557199D01*
X567399Y559000D01*
X570999Y562600D01*
X572800Y566300D01*
X572800Y573499D01*
X570999Y577199D01*
X567399Y580799D01*
X563699Y582600D01*
X443699Y502300D02*
G01*
X440100Y500500D01*
X436500Y496799D01*
X434600Y493200D01*
X434600Y485900D01*
X436500Y482300D01*
X440100Y478600D01*
X443699Y476799D01*
X449200Y475000D01*
X458299Y475000D01*
X463699Y476799D01*
X467399Y478600D01*
X470999Y482300D01*
X472800Y485900D01*
X472800Y493200D01*
X470999Y496799D01*
X467399Y500500D01*
X463699Y502300D01*
X458299Y502300D01*
X458299Y493200D02*
G01*
X458299Y502300D01*
X434600Y514299D02*
G01*
X472800Y514299D01*
X434600Y514299D02*
G01*
X472800Y539699D01*
X434600Y539699D02*
G01*
X472800Y539699D01*
X434600Y551700D02*
G01*
X472800Y551700D01*
X434600Y551700D02*
G01*
X434600Y564499D01*
X436500Y569899D01*
X440100Y573499D01*
X443699Y575399D01*
X449200Y577199D01*
X458299Y577199D01*
X463699Y575399D01*
X467399Y573499D01*
X470999Y569899D01*
X472800Y564499D01*
X472800Y551700D01*
X59899Y549499D02*
G01*
X63499Y553200D01*
X65399Y558600D01*
X65399Y565900D01*
X63499Y571399D01*
X59899Y575000D01*
X56300Y575000D01*
X52600Y573200D01*
X50799Y571399D01*
X49000Y567699D01*
X45399Y556799D01*
X43499Y553200D01*
X41700Y551399D01*
X38099Y549499D01*
X32600Y549499D01*
X29000Y553200D01*
X27199Y558600D01*
X27199Y565900D01*
X29000Y571399D01*
X32600Y575000D01*
X65399Y537500D02*
G01*
X27199Y537500D01*
X56300Y498299D02*
G01*
X59899Y500100D01*
X63499Y503699D01*
X65399Y507399D01*
X65399Y514600D01*
X63499Y518299D01*
X59899Y521900D01*
X56300Y523699D01*
X50799Y525500D01*
X41700Y525500D01*
X36300Y523699D01*
X32600Y521900D01*
X29000Y518299D01*
X27199Y514600D01*
X27199Y507399D01*
X29000Y503699D01*
X32600Y500100D01*
X36300Y498299D01*
X41700Y498299D01*
X41700Y507399D02*
G01*
X41700Y498299D01*
X59899Y99499D02*
G01*
X63499Y103200D01*
X65399Y108600D01*
X65399Y115900D01*
X63499Y121399D01*
X59899Y125000D01*
X56300Y125000D01*
X52600Y123200D01*
X50799Y121399D01*
X49000Y117699D01*
X45399Y106799D01*
X43499Y103200D01*
X41700Y101399D01*
X38099Y99499D01*
X32600Y99499D01*
X29000Y103200D01*
X27199Y108600D01*
X27199Y115900D01*
X29000Y121399D01*
X32600Y125000D01*
X65399Y87500D02*
G01*
X27199Y87500D01*
X56300Y48299D02*
G01*
X59899Y50100D01*
X63499Y53699D01*
X65399Y57399D01*
X65399Y64600D01*
X63499Y68299D01*
X59899Y71900D01*
X56300Y73699D01*
X50799Y75500D01*
X41700Y75500D01*
X36300Y73699D01*
X32600Y71900D01*
X29000Y68299D01*
X27199Y64600D01*
X27199Y57399D01*
X29000Y53699D01*
X32600Y50100D01*
X36300Y48299D01*
X41700Y48299D01*
X41700Y57399D02*
G01*
X41700Y48299D01*
D10*
X345747Y415650D02*
G01*
X621338Y415650D01*
X621338Y415650D02*
G01*
X621338Y185001D01*
X345747Y185001D01*
X621338Y400001D02*
G01*
X1330000Y400001D01*
X621338Y199223D02*
G01*
X1330000Y199223D01*
X300000Y500001D02*
G01*
X345000Y500001D01*
X1330000Y400001D02*
G01*
X1330000Y199223D01*
X345000Y500001D02*
G01*
X345000Y101350D01*
X345000Y100001D02*
G01*
X300000Y100001D01*
X-145000Y-14998D02*
G01*
X300000Y-14998D01*
X-145000Y615001D02*
G01*
X-145000Y-14960D01*
X300000Y615001D02*
G01*
X300000Y-14920D01*
X300000Y615001D02*
G01*
X-145000Y615001D01*
M02*
