G04 Layer: BottomSilkLayer*
G04 EasyEDA v6.4.25, 2021-12-11T01:25:18+11:00*
G04 a67cddfb3fce44daa9051d46cbbcc19f,10*
G04 Gerber Generator version 0.2*
G04 Scale: 100 percent, Rotated: No, Reflected: No *
G04 Dimensions in inches *
G04 leading zeros omitted , absolute positions ,3 integer and 6 decimal *
%FSLAX36Y36*%
%MOIN*%

%ADD15C,0.0080*%
%ADD16C,0.0080*%

%LPD*%
D15*
X35100Y99499D02*
G01*
X31500Y103200D01*
X29600Y108600D01*
X29600Y115900D01*
X31500Y121399D01*
X35100Y125000D01*
X38699Y125000D01*
X42399Y123200D01*
X44200Y121399D01*
X45999Y117699D01*
X49600Y106799D01*
X51500Y103200D01*
X53299Y101399D01*
X56900Y99499D01*
X62399Y99499D01*
X65999Y103200D01*
X67800Y108600D01*
X67800Y115900D01*
X65999Y121399D01*
X62399Y125000D01*
X29600Y87500D02*
G01*
X67800Y87500D01*
X38699Y48299D02*
G01*
X35100Y50100D01*
X31500Y53699D01*
X29600Y57399D01*
X29600Y64600D01*
X31500Y68299D01*
X35100Y71900D01*
X38699Y73699D01*
X44200Y75500D01*
X53299Y75500D01*
X58699Y73699D01*
X62399Y71900D01*
X65999Y68299D01*
X67800Y64600D01*
X67800Y57399D01*
X65999Y53699D01*
X62399Y50100D01*
X58699Y48299D01*
X53299Y48299D01*
X53299Y57399D02*
G01*
X53299Y48299D01*
X35100Y549499D02*
G01*
X31500Y553200D01*
X29600Y558600D01*
X29600Y565900D01*
X31500Y571399D01*
X35100Y575000D01*
X38699Y575000D01*
X42399Y573200D01*
X44200Y571399D01*
X45999Y567699D01*
X49600Y556799D01*
X51500Y553200D01*
X53299Y551399D01*
X56900Y549499D01*
X62399Y549499D01*
X65999Y553200D01*
X67800Y558600D01*
X67800Y565900D01*
X65999Y571399D01*
X62399Y575000D01*
X29600Y537500D02*
G01*
X67800Y537500D01*
X38699Y498299D02*
G01*
X35100Y500100D01*
X31500Y503699D01*
X29600Y507399D01*
X29600Y514600D01*
X31500Y518299D01*
X35100Y521900D01*
X38699Y523699D01*
X44200Y525500D01*
X53299Y525500D01*
X58699Y523699D01*
X62399Y521900D01*
X65999Y518299D01*
X67800Y514600D01*
X67800Y507399D01*
X65999Y503699D01*
X62399Y500100D01*
X58699Y498299D01*
X53299Y498299D01*
X53299Y507399D02*
G01*
X53299Y498299D01*
X461273Y52273D02*
G01*
X464908Y50455D01*
X468544Y46817D01*
X470363Y43182D01*
X470363Y35909D01*
X468544Y32273D01*
X464908Y28636D01*
X461273Y26817D01*
X455817Y25000D01*
X446727Y25000D01*
X441273Y26817D01*
X437636Y28636D01*
X434000Y32273D01*
X432181Y35909D01*
X432181Y43182D01*
X434000Y46817D01*
X437636Y50455D01*
X441273Y52273D01*
X446727Y52273D01*
X446727Y43182D02*
G01*
X446727Y52273D01*
X470363Y64272D02*
G01*
X432181Y64272D01*
X470363Y64272D02*
G01*
X432181Y89726D01*
X470363Y89726D02*
G01*
X432181Y89726D01*
X470363Y101727D02*
G01*
X432181Y101727D01*
X470363Y101727D02*
G01*
X470363Y114454D01*
X468544Y119908D01*
X464908Y123544D01*
X461273Y125363D01*
X455817Y127181D01*
X446727Y127181D01*
X441273Y125363D01*
X437636Y123544D01*
X434000Y119908D01*
X432181Y114454D01*
X432181Y101727D01*
X570363Y25000D02*
G01*
X532181Y39544D01*
X570363Y54090D02*
G01*
X532181Y39544D01*
X561273Y93364D02*
G01*
X564908Y91545D01*
X568544Y87908D01*
X570363Y84272D01*
X570363Y76999D01*
X568544Y73364D01*
X564908Y69726D01*
X561273Y67908D01*
X555817Y66091D01*
X546727Y66091D01*
X541273Y67908D01*
X537636Y69726D01*
X534000Y73364D01*
X532181Y76999D01*
X532181Y84272D01*
X534000Y87908D01*
X537636Y91545D01*
X541273Y93364D01*
X561273Y132636D02*
G01*
X564908Y130817D01*
X568544Y127181D01*
X570363Y123544D01*
X570363Y116273D01*
X568544Y112636D01*
X564908Y109000D01*
X561273Y107181D01*
X555817Y105363D01*
X546727Y105363D01*
X541273Y107181D01*
X537636Y109000D01*
X534000Y112636D01*
X532181Y116273D01*
X532181Y123544D01*
X534000Y127181D01*
X537636Y130817D01*
X541273Y132636D01*
X570363Y475000D02*
G01*
X532181Y489544D01*
X570363Y504090D02*
G01*
X532181Y489544D01*
X561273Y543364D02*
G01*
X564908Y541545D01*
X568544Y537908D01*
X570363Y534272D01*
X570363Y526999D01*
X568544Y523364D01*
X564908Y519726D01*
X561273Y517908D01*
X555817Y516091D01*
X546727Y516091D01*
X541273Y517908D01*
X537636Y519726D01*
X534000Y523364D01*
X532181Y526999D01*
X532181Y534272D01*
X534000Y537908D01*
X537636Y541545D01*
X541273Y543364D01*
X561273Y582636D02*
G01*
X564908Y580817D01*
X568544Y577181D01*
X570363Y573544D01*
X570363Y566273D01*
X568544Y562636D01*
X564908Y559000D01*
X561273Y557181D01*
X555817Y555363D01*
X546727Y555363D01*
X541273Y557181D01*
X537636Y559000D01*
X534000Y562636D01*
X532181Y566273D01*
X532181Y573544D01*
X534000Y577181D01*
X537636Y580817D01*
X541273Y582636D01*
X461273Y502273D02*
G01*
X464908Y500455D01*
X468544Y496817D01*
X470363Y493182D01*
X470363Y485909D01*
X468544Y482273D01*
X464908Y478636D01*
X461273Y476817D01*
X455817Y475000D01*
X446727Y475000D01*
X441273Y476817D01*
X437636Y478636D01*
X434000Y482273D01*
X432181Y485909D01*
X432181Y493182D01*
X434000Y496817D01*
X437636Y500455D01*
X441273Y502273D01*
X446727Y502273D01*
X446727Y493182D02*
G01*
X446727Y502273D01*
X470363Y514272D02*
G01*
X432181Y514272D01*
X470363Y514272D02*
G01*
X432181Y539726D01*
X470363Y539726D02*
G01*
X432181Y539726D01*
X470363Y551727D02*
G01*
X432181Y551727D01*
X470363Y551727D02*
G01*
X470363Y564454D01*
X468544Y569908D01*
X464908Y573544D01*
X461273Y575363D01*
X455817Y577181D01*
X446727Y577181D01*
X441273Y575363D01*
X437636Y573544D01*
X434000Y569908D01*
X432181Y564454D01*
X432181Y551727D01*
X600000Y150000D02*
G01*
X400000Y150000D01*
X400000Y450000D01*
X600000Y450000D01*
X600000Y150000D01*
X600000Y341669D01*
X0Y375000D02*
G01*
X0Y450000D01*
X100000Y450000D01*
X100000Y150000D01*
X0Y150000D01*
D16*
X0Y150000D02*
G01*
X0Y375000D01*
M02*
