<svg xmlns="http://www.w3.org/2000/svg" xmlns:xlink="http://www.w3.org/1999/xlink" width="42.545mm" height="21.082mm" viewBox="3995.5 3361.5 167.5 83"><title></title><style type="text/css">
*[layerid="1"] {stroke:#000000;fill:#000000;}
*[layerid="2"] {stroke:#000000;fill:#000000;}
*[layerid="3"] {stroke:#000000;fill:#000000;}
*[layerid="4"] {stroke:#000000;fill:#000000;}
*[layerid="5"] {stroke:#000000;fill:#000000;}
*[layerid="6"] {stroke:#000000;fill:#000000;}
*[layerid="7"] {stroke:#000000;fill:#000000;}
*[layerid="8"] {stroke:#000000;fill:#000000;}
*[layerid="9"] {stroke:#000000;fill:#000000;}
*[layerid="10"] {stroke:#000000;fill:#000000;}
*[layerid="11"] {stroke:#000000;fill:#000000;}
*[layerid="12"] {stroke:#000000;fill:#000000;}
*[layerid="13"] {stroke:#000000;fill:#000000;}
*[layerid="14"] {stroke:#000000;fill:#000000;}
*[layerid="15"] {stroke:#000000;fill:#000000;}
*[layerid="19"] {stroke:#000000;fill:#000000;}
*[layerid="21"] {stroke:#000000;fill:#000000;}
*[layerid="22"] {stroke:#000000;fill:#000000;}
*[layerid="23"] {stroke:#000000;fill:#000000;}
*[layerid="24"] {stroke:#000000;fill:#000000;}
*[layerid="25"] {stroke:#000000;fill:#000000;}
*[layerid="26"] {stroke:#000000;fill:#000000;}
*[layerid="27"] {stroke:#000000;fill:#000000;}
*[layerid="28"] {stroke:#000000;fill:#000000;}
*[layerid="29"] {stroke:#000000;fill:#000000;}
*[layerid="30"] {stroke:#000000;fill:#000000;}
*[layerid="31"] {stroke:#000000;fill:#000000;}
*[layerid="32"] {stroke:#000000;fill:#000000;}
*[layerid="33"] {stroke:#000000;fill:#000000;}
*[layerid="34"] {stroke:#000000;fill:#000000;}
*[layerid="35"] {stroke:#000000;fill:#000000;}
*[layerid="36"] {stroke:#000000;fill:#000000;}
*[layerid="37"] {stroke:#000000;fill:#000000;}
*[layerid="38"] {stroke:#000000;fill:#000000;}
*[layerid="39"] {stroke:#000000;fill:#000000;}
*[layerid="40"] {stroke:#000000;fill:#000000;}
*[layerid="41"] {stroke:#000000;fill:#000000;}
*[layerid="42"] {stroke:#000000;fill:#000000;}
*[layerid="43"] {stroke:#000000;fill:#000000;}
*[layerid="44"] {stroke:#000000;fill:#000000;}
*[layerid="45"] {stroke:#000000;fill:#000000;}
*[layerid="46"] {stroke:#000000;fill:#000000;}
*[layerid="47"] {stroke:#000000;fill:#000000;}
*[layerid="48"] {stroke:#000000;fill:#000000;}
*[layerid="49"] {stroke:#000000;fill:#000000;}
*[layerid="50"] {stroke:#000000;fill:#000000;}
*[layerid="51"] {stroke:#000000;fill:#000000;}
*[layerid="52"] {stroke:#000000;fill:#000000;}
*[layerid="99"] {stroke:#000000;fill:#000000;}
*[layerid="100"] {stroke:#000000;fill:#000000;}
*[layerid="101"] {stroke:#000000;fill:#000000;}
*[layerid="Hole"] {stroke:#000000;fill:#000000;}
*[layerid="DRCError"] {stroke:#000000;fill:#000000;}
*[fill="none"] {fill: none;}
*[stroke="none"] {stroke: none;}
path, polyline, polygon, line {stroke-linecap:round;}
g[c_partid="part_pad"][layerid="1"] ellipse:not([c_etype="pad_outer"]) {fill:#000000;}
g[c_partid="part_pad"][layerid="1"] polygon:not([c_etype="pad_outer"]) {fill:#000000;}
g[c_partid="part_pad"][layerid="1"] polyline:not([c_etype="pad_outer"]) {stroke:#000000;}
g[c_partid="part_pad"][layerid="2"] ellipse:not([c_etype="pad_outer"]) {fill:#000000;}
g[c_partid="part_pad"][layerid="2"] polygon:not([c_etype="pad_outer"]) {fill:#000000;}
g[c_partid="part_pad"][layerid="2"] polyline:not([c_etype="pad_outer"]) {stroke:#000000;}
g[c_partid="part_pad"][layerid="11"] ellipse:not([c_etype="pad_outer"]) {fill:#000000;}
g[c_partid="part_pad"][layerid="11"] polygon:not([c_etype="pad_outer"]) {fill:#000000;}
g[c_partid="part_pad"][layerid="11"] polyline:not([c_etype="pad_outer"]) {stroke:#000000;}
g[c_partid="part_pad"][layerid="11"] circle {fill:#FFFFFF;}
g[c_partid="part_pad"][layerid="11"] > polyline:nth-of-type(2) {stroke:#FFFFFF;}
g[c_partid="part_pad"][layerid="11"][c_shape="ELLIPSE"]  polyline:nth-last-of-type(1) {stroke:#FFFFFF;}
g[c_partid="part_pad"][layerid="11"][c_shape="RECT"]  polyline:nth-last-of-type(1) {stroke:#FFFFFF;}
g[c_partid="part_pad"][layerid="11"][c_shape="POLYGON"]  polyline:nth-last-of-type(1) {stroke:#FFFFFF;}
g[c_partid="part_via"] > * + circle, #gCurParts g[c_partid="part_via"] > * + circle {fill:#FFFFFF;}
g[c_partid="part_pad"] > polygon[c_etype="pad_outer"], #gCurParts g[c_partid="part_pad"] > polygon[c_etype="pad_outer"] {stroke-linejoin: miter;stroke-miterlimit: 100;}
g[c_partid="part_hole"] > circle {fill: #FFFFFF;}path, polyline, polygon {stroke-linejoin:round;}
rect, circle, ellipse, polyline, line, polygon, path {shape-rendering:crispEdges;}
</style>
<rect x="3995.5" y="3361.5" width="167.5" height="83" fill="#FFFFFF" stroke="none"/><polyline points="4025 3413 4025 3393" stroke-width="6.5"  stroke-linecap="round" fill="none" layerid="1" net="SIGNAL" id="gge330" locked="0" /><polyline points="4075 3393 4075 3388 4070 3383 4035.315 3383 4035 3383.315" stroke-width="6.5"  stroke-linecap="round" fill="none" layerid="1" net="GND" id="gge415" locked="0" /><polyline points="4075 3413 4075 3393" stroke-width="6.5"  stroke-linecap="round" fill="none" layerid="1" net="GND" id="gge414" locked="0" /><polyline points="4065 3413 4065 3393" stroke-width="6.5"  stroke-linecap="round" fill="none" layerid="1" net="VCC" id="gge413" locked="0" /><polyline points="4035 3422.685 4055.315 3422.685 4065 3413" stroke-width="6.5"  stroke-linecap="round" fill="none" layerid="1" net="VCC" id="gge412" locked="0" /><polyline points="4025 3403 4035 3403" stroke-width="6.5"  stroke-linecap="round" fill="none" layerid="1" net="SIGNAL" id="gge331" locked="0" /><g c_partid="part_pad" c_etype="pinpart" c_origin="4065,3413" layerid="11" number="6" net="VCC" plated ="Y"  id="gge263" locked="0" c_rotation="90" c_width="6.2" c_height="6.2" title="VCC" c_shape="ELLIPSE" pasteexpansion="0" solderexpansion="0.2"><ellipse c_etype="pad_shell" cx="4065" cy="3413" rx="3.1" ry="3.1" layerid="11" stroke-width="0"/><circle c_etype="pad_hole" cx="4065" cy="3413" r="1.75" layerid="11" stroke-width="0"/></g><g c_partid="part_pad" c_etype="pinpart" c_origin="4075,3413" layerid="11" number="5" net="GND" plated ="Y"  id="gge268" locked="0" c_rotation="90" c_width="6.2" c_height="6.2" title="GND" c_shape="ELLIPSE" pasteexpansion="0" solderexpansion="0.2"><ellipse c_etype="pad_shell" cx="4075" cy="3413" rx="3.1" ry="3.1" layerid="11" stroke-width="0"/><circle c_etype="pad_hole" cx="4075" cy="3413" r="1.75" layerid="11" stroke-width="0"/></g><g c_partid="part_pad" c_etype="pinpart" c_origin="4065,3403" layerid="11" number="4" net="VCC" plated ="Y"  id="gge273" locked="0" c_rotation="90" c_width="6.2" c_height="6.2" title="VCC" c_shape="ELLIPSE" pasteexpansion="0" solderexpansion="0.2"><ellipse c_etype="pad_shell" cx="4065" cy="3403" rx="3.1" ry="3.1" layerid="11" stroke-width="0"/><circle c_etype="pad_hole" cx="4065" cy="3403" r="1.75" layerid="11" stroke-width="0"/></g><g c_partid="part_pad" c_etype="pinpart" c_origin="4075,3403" layerid="11" number="3" net="GND" plated ="Y"  id="gge278" locked="0" c_rotation="90" c_width="6.2" c_height="6.2" title="GND" c_shape="ELLIPSE" pasteexpansion="0" solderexpansion="0.2"><ellipse c_etype="pad_shell" cx="4075" cy="3403" rx="3.1" ry="3.1" layerid="11" stroke-width="0"/><circle c_etype="pad_hole" cx="4075" cy="3403" r="1.75" layerid="11" stroke-width="0"/></g><g c_partid="part_pad" c_etype="pinpart" c_origin="4065,3393" layerid="11" number="2" net="VCC" plated ="Y"  id="gge283" locked="0" c_rotation="90" c_width="6.2" c_height="6.2" title="VCC" c_shape="ELLIPSE" pasteexpansion="0" solderexpansion="0.2"><ellipse c_etype="pad_shell" cx="4065" cy="3393" rx="3.1" ry="3.1" layerid="11" stroke-width="0"/><circle c_etype="pad_hole" cx="4065" cy="3393" r="1.75" layerid="11" stroke-width="0"/></g><g c_partid="part_pad" c_etype="pinpart" c_origin="4075,3393" layerid="11" number="1" net="GND" plated ="Y"  id="gge288" locked="0" c_rotation="90" c_width="6.2" c_height="6.2" title="GND" c_shape="RECT" pasteexpansion="0" solderexpansion="0.2"><polygon  c_etype="pad_shell" points="4071.9 3389.9 4071.9 3396.1 4078.1 3396.1 4078.1 3389.9" layerid="11" stroke-width="0" /><circle c_etype="pad_hole" cx="4075" cy="3393" r="1.75" layerid="11" stroke-width="0"/></g><g c_partid="part_pad" c_etype="pinpart" c_origin="4035,3383.315" layerid="11" number="3" net="GND" plated ="Y"  id="gge55" locked="0" c_rotation="0" c_width="7.874" c_height="7.874" title="GND" c_shape="ELLIPSE" pasteexpansion="0" solderexpansion="0.2"><ellipse c_etype="pad_shell" cx="4035" cy="3383.315" rx="3.937" ry="3.937" layerid="11" stroke-width="0"/><circle c_etype="pad_hole" cx="4035" cy="3383.3149" r="2.5591" layerid="11" stroke-width="0"/></g><g c_partid="part_pad" c_etype="pinpart" c_origin="4035,3403" layerid="11" number="2" net="SIGNAL" plated ="Y"  id="gge60" locked="0" c_rotation="0" c_width="7.874" c_height="7.874" title="SIGNAL" c_shape="ELLIPSE" pasteexpansion="0" solderexpansion="0.2"><ellipse c_etype="pad_shell" cx="4035" cy="3403" rx="3.937" ry="3.937" layerid="11" stroke-width="0"/><circle c_etype="pad_hole" cx="4035" cy="3403" r="2.5591" layerid="11" stroke-width="0"/></g><g c_partid="part_pad" c_etype="pinpart" c_origin="4035,3422.685" layerid="11" number="1" net="VCC" plated ="Y"  id="gge65" locked="0" c_rotation="0" c_width="7.874" c_height="7.874" title="VCC" c_shape="ELLIPSE" pasteexpansion="0" solderexpansion="0.2"><ellipse c_etype="pad_shell" cx="4035" cy="3422.685" rx="3.937" ry="3.937" layerid="11" stroke-width="0"/><circle c_etype="pad_hole" cx="4035" cy="3422.6852" r="2.5591" layerid="11" stroke-width="0"/></g><g c_partid="part_pad" c_etype="pinpart" c_origin="4025,3413" layerid="11" number="3" net="SIGNAL" plated ="Y"  id="gge141" locked="0" c_rotation="90" c_width="6.2" c_height="6.2" title="SIGNAL" c_shape="ELLIPSE" pasteexpansion="0" solderexpansion="0.2"><ellipse c_etype="pad_shell" cx="4025" cy="3413" rx="3.1" ry="3.1" layerid="11" stroke-width="0"/><circle c_etype="pad_hole" cx="4025" cy="3413" r="1.75" layerid="11" stroke-width="0"/></g><g c_partid="part_pad" c_etype="pinpart" c_origin="4025,3403" layerid="11" number="2" net="SIGNAL" plated ="Y"  id="gge146" locked="0" c_rotation="90" c_width="6.2" c_height="6.2" title="SIGNAL" c_shape="ELLIPSE" pasteexpansion="0" solderexpansion="0.2"><ellipse c_etype="pad_shell" cx="4025" cy="3403" rx="3.1" ry="3.1" layerid="11" stroke-width="0"/><circle c_etype="pad_hole" cx="4025" cy="3403" r="1.75" layerid="11" stroke-width="0"/></g><g c_partid="part_pad" c_etype="pinpart" c_origin="4025,3393" layerid="11" number="1" net="SIGNAL" plated ="Y"  id="gge151" locked="0" c_rotation="90" c_width="6.2" c_height="6.2" title="SIGNAL" c_shape="RECT" pasteexpansion="0" solderexpansion="0.2"><polygon  c_etype="pad_shell" points="4021.9 3389.9 4021.9 3396.1 4028.1 3396.1 4028.1 3389.9" layerid="11" stroke-width="0" /><circle c_etype="pad_hole" cx="4025" cy="3393" r="1.75" layerid="11" stroke-width="0"/></g><polyline points="4054.5747 3391.435 4082.1338 3391.435" stroke-width="1"  stroke-linecap="round" fill="none" layerid="3" net="" id="gge36" locked="0" /><polyline points="4082.1338 3391.435 4082.1338 3414.4999 4054.5747 3414.4999" stroke-width="1"  stroke-linecap="round" fill="none" layerid="3" net="" id="gge37" locked="0" /><polyline points="4082.1338 3392.9999 4153 3392.9999" stroke-width="1"  stroke-linecap="round" fill="none" layerid="3" net="" id="gge38" locked="0" /><polyline points="4082.1338 3413.0776 4153 3413.0776" stroke-width="1"  stroke-linecap="round" fill="none" layerid="3" net="" id="gge39" locked="0" /><polyline points="4050 3382.9999 4054.5 3382.9999" stroke-width="1"  stroke-linecap="round" fill="none" layerid="3" net="" id="gge40" locked="0" /><polyline points="4153 3392.9999 4153 3413.0776" stroke-width="1"  stroke-linecap="round" fill="none" layerid="3" net="" id="gge41" locked="0" /><polyline points="4054.5 3382.9999 4054.5 3422.8649" stroke-width="1"  stroke-linecap="round" fill="none" layerid="3" net="" id="gge42" locked="0" /><polyline points="4054.5 3422.9999 4050 3422.9999" stroke-width="1"  stroke-linecap="round" fill="none" layerid="3" net="" id="gge43" locked="0" /><polyline points="4005.5 3434.4999 4050 3434.4999" stroke-width="1"  stroke-linecap="round" fill="none" layerid="3" net="" id="gge44" locked="0" /><polyline points="4005.5 3371.4999 4005.5 3434.496" stroke-width="1"  stroke-linecap="round" fill="none" layerid="3" net="" id="gge45" locked="0" /><polyline points="4050 3371.4999 4050 3434.4921" stroke-width="1"  stroke-linecap="round" fill="none" layerid="3" net="" id="gge46" locked="0" /><polyline points="4050 3371.4999 4005.5 3371.4999" stroke-width="1"  stroke-linecap="round" fill="none" layerid="3" net="" id="gge47" locked="0" /><g c_partid="part_pcbtext" c_etype="pinpart" c_origin="4077.5,3430.5" c_rotation="90" c_mirror="0" id="gge337" locked="0" layerid="3" c_shapetype="group" ><path c_fontsize="4" c_fontfamily="" c_text="VCC" d="M 4073.46 3430.5 L 4077.28 3429.05 M 4073.46 3427.59 L 4077.28 3429.05 M 4074.37 3423.66 L 4074.01 3423.85 L 4073.65 3424.21 L 4073.46 3424.57 L 4073.46 3425.3 L 4073.65 3425.66 L 4074.01 3426.03 L 4074.37 3426.21 L 4074.92 3426.39 L 4075.83 3426.39 L 4076.37 3426.21 L 4076.74 3426.03 L 4077.1 3425.66 L 4077.28 3425.3 L 4077.28 3424.57 L 4077.1 3424.21 L 4076.74 3423.85 L 4076.37 3423.66 M 4074.37 3419.74 L 4074.01 3419.92 L 4073.65 3420.28 L 4073.46 3420.65 L 4073.46 3421.37 L 4073.65 3421.74 L 4074.01 3422.1 L 4074.37 3422.28 L 4074.92 3422.46 L 4075.83 3422.46 L 4076.37 3422.28 L 4076.74 3422.1 L 4077.1 3421.74 L 4077.28 3421.37 L 4077.28 3420.65 L 4077.1 3420.28 L 4076.74 3419.92 L 4076.37 3419.74" fill="none"  stroke-width="0.8"  /></g><g c_partid="part_pcbtext" c_etype="pinpart" c_origin="4067.5,3430.5" c_rotation="90" c_mirror="0" id="gge344" locked="0" layerid="3" c_shapetype="group" ><path c_fontsize="4" c_fontfamily="" c_text="GND" d="M 4064.37 3427.77L4064.01 3427.95 L4063.65 3428.32 L4063.46 3428.68 L4063.46 3429.41 L4063.65 3429.77 L4064.01 3430.14 L4064.37 3430.32 L4064.92 3430.5 L4065.83 3430.5 L4066.37 3430.32 L4066.74 3430.14 L4067.1 3429.77 L4067.28 3429.41 L4067.28 3428.68 L4067.1 3428.32 L4066.74 3427.95 L4066.37 3427.77 L4065.83 3427.77 M 4065.83 3428.68L4065.83 3427.77 M 4063.46 3426.57L4067.28 3426.57 M 4063.46 3426.57L4067.28 3424.03 M 4063.46 3424.03L4067.28 3424.03 M 4063.46 3422.83L4067.28 3422.83 M 4063.46 3422.83L4063.46 3421.55 L4063.65 3421.01 L4064.01 3420.65 L4064.37 3420.46 L4064.92 3420.28 L4065.83 3420.28 L4066.37 3420.46 L4066.74 3420.65 L4067.1 3421.01 L4067.28 3421.55 L4067.28 3422.83 " fill="none"  stroke-width="0.8"  /></g><g c_partid="part_pcbtext" c_etype="pinpart" c_origin="4077.5,3385.5" c_rotation="90" c_mirror="0" id="gge351" locked="0" layerid="3" c_shapetype="group" ><path c_fontsize="4" c_fontfamily="" c_text="VCC" d="M 4073.46 3385.5 L 4077.28 3384.05 M 4073.46 3382.59 L 4077.28 3384.05 M 4074.37 3378.66 L 4074.01 3378.85 L 4073.65 3379.21 L 4073.46 3379.57 L 4073.46 3380.3 L 4073.65 3380.66 L 4074.01 3381.03 L 4074.37 3381.21 L 4074.92 3381.39 L 4075.83 3381.39 L 4076.37 3381.21 L 4076.74 3381.03 L 4077.1 3380.66 L 4077.28 3380.3 L 4077.28 3379.57 L 4077.1 3379.21 L 4076.74 3378.85 L 4076.37 3378.66 M 4074.37 3374.74 L 4074.01 3374.92 L 4073.65 3375.28 L 4073.46 3375.65 L 4073.46 3376.37 L 4073.65 3376.74 L 4074.01 3377.1 L 4074.37 3377.28 L 4074.92 3377.46 L 4075.83 3377.46 L 4076.37 3377.28 L 4076.74 3377.1 L 4077.1 3376.74 L 4077.28 3376.37 L 4077.28 3375.65 L 4077.1 3375.28 L 4076.74 3374.92 L 4076.37 3374.74" fill="none"  stroke-width="0.8"  /></g><g c_partid="part_pcbtext" c_etype="pinpart" c_origin="4067.5,3385.5" c_rotation="90" c_mirror="0" id="gge352" locked="0" layerid="3" c_shapetype="group" ><path c_fontsize="4" c_fontfamily="" c_text="GND" d="M 4064.37 3382.77 L 4064.01 3382.95 L 4063.65 3383.32 L 4063.46 3383.68 L 4063.46 3384.41 L 4063.65 3384.77 L 4064.01 3385.14 L 4064.37 3385.32 L 4064.92 3385.5 L 4065.83 3385.5 L 4066.37 3385.32 L 4066.74 3385.14 L 4067.1 3384.77 L 4067.28 3384.41 L 4067.28 3383.68 L 4067.1 3383.32 L 4066.74 3382.95 L 4066.37 3382.77 L 4065.83 3382.77 M 4065.83 3383.68 L 4065.83 3382.77 M 4063.46 3381.57 L 4067.28 3381.57 M 4063.46 3381.57 L 4067.28 3379.03 M 4063.46 3379.03 L 4067.28 3379.03 M 4063.46 3377.83 L 4067.28 3377.83 M 4063.46 3377.83 L 4063.46 3376.55 L 4063.65 3376.01 L 4064.01 3375.65 L 4064.37 3375.46 L 4064.92 3375.28 L 4065.83 3375.28 L 4066.37 3375.46 L 4066.74 3375.65 L 4067.1 3376.01 L 4067.28 3376.55 L 4067.28 3377.83" fill="none"  stroke-width="0.8"  /></g><g c_partid="part_pcbtext" c_etype="pinpart" c_origin="4022.5,3375.5" c_rotation="270" c_mirror="0" id="gge359" locked="0" layerid="3" c_shapetype="group" ><path c_fontsize="4" c_fontfamily="" c_text="SIG" d="M 4025.99 3378.05L4026.35 3377.68 L4026.54 3377.14 L4026.54 3376.41 L4026.35 3375.86 L4025.99 3375.5 L4025.63 3375.5 L4025.26 3375.68 L4025.08 3375.86 L4024.9 3376.23 L4024.54 3377.32 L4024.35 3377.68 L4024.17 3377.86 L4023.81 3378.05 L4023.26 3378.05 L4022.9 3377.68 L4022.72 3377.14 L4022.72 3376.41 L4022.9 3375.86 L4023.26 3375.5 M 4026.54 3379.25L4022.72 3379.25 M 4025.63 3383.17L4025.99 3382.99 L4026.35 3382.63 L4026.54 3382.26 L4026.54 3381.54 L4026.35 3381.17 L4025.99 3380.81 L4025.63 3380.63 L4025.08 3380.45 L4024.17 3380.45 L4023.63 3380.63 L4023.26 3380.81 L4022.9 3381.17 L4022.72 3381.54 L4022.72 3382.26 L4022.9 3382.63 L4023.26 3382.99 L4023.63 3383.17 L4024.17 3383.17 M 4024.17 3382.26L4024.17 3383.17 " fill="none"  stroke-width="0.8"  /></g><g c_partid="part_pcbtext" c_etype="pinpart" c_origin="4022.5,3420.5" c_rotation="270" c_mirror="0" id="gge360" locked="0" layerid="3" c_shapetype="group" ><path c_fontsize="4" c_fontfamily="" c_text="SIG" d="M 4025.99 3423.05L4026.35 3422.68 L4026.54 3422.14 L4026.54 3421.41 L4026.35 3420.86 L4025.99 3420.5 L4025.63 3420.5 L4025.26 3420.68 L4025.08 3420.86 L4024.9 3421.23 L4024.54 3422.32 L4024.35 3422.68 L4024.17 3422.86 L4023.81 3423.05 L4023.26 3423.05 L4022.9 3422.68 L4022.72 3422.14 L4022.72 3421.41 L4022.9 3420.86 L4023.26 3420.5 M 4026.54 3424.25L4022.72 3424.25 M 4025.63 3428.17L4025.99 3427.99 L4026.35 3427.63 L4026.54 3427.26 L4026.54 3426.54 L4026.35 3426.17 L4025.99 3425.81 L4025.63 3425.63 L4025.08 3425.45 L4024.17 3425.45 L4023.63 3425.63 L4023.26 3425.81 L4022.9 3426.17 L4022.72 3426.54 L4022.72 3427.26 L4022.9 3427.63 L4023.26 3427.99 L4023.63 3428.17 L4024.17 3428.17 M 4024.17 3427.26L4024.17 3428.17 " fill="none"  stroke-width="0.8"  /></g><g c_partid="part_pcbtext" c_etype="" c_origin="4079,3362.815" c_rotation="0" c_mirror="0" id="gge32" locked="0" layerid="3" c_shapetype="group" display="none"><path c_fontsize="4.5" c_fontfamily="" c_text="ALPS" d="M 4080.64 3358.275 L 4079 3362.565 M 4080.64 3358.275 L 4082.27 3362.565 M 4079.61 3361.135 L 4081.66 3361.135 M 4083.62 3358.275 L 4083.62 3362.565 M 4083.62 3362.565 L 4086.08 3362.565 M 4087.43 3358.275 L 4087.43 3362.565 M 4087.43 3358.275 L 4089.27 3358.275 L 4089.88 3358.475 L 4090.09 3358.685 L 4090.29 3359.095 L 4090.29 3359.705 L 4090.09 3360.115 L 4089.88 3360.315 L 4089.27 3360.525 L 4087.43 3360.525 M 4094.5 3358.885 L 4094.1 3358.475 L 4093.48 3358.275 L 4092.66 3358.275 L 4092.05 3358.475 L 4091.64 3358.885 L 4091.64 3359.295 L 4091.85 3359.705 L 4092.05 3359.915 L 4092.46 3360.115 L 4093.69 3360.525 L 4094.1 3360.725 L 4094.3 3360.935 L 4094.5 3361.345 L 4094.5 3361.955 L 4094.1 3362.365 L 4093.48 3362.565 L 4092.66 3362.565 L 4092.05 3362.365 L 4091.64 3361.955" fill="none"  stroke-width="0.6" c_note="note_name" /></g><g c_partid="part_pcbtext" c_etype="" c_origin="4079,3369.815" c_rotation="0" c_mirror="0" id="gge34" locked="0" layerid="3" c_shapetype="group" display="none"><path c_fontsize="4.5" c_fontfamily="" c_text="R1" d="M 4079 3365.275 L 4079 3369.565 M 4079 3365.275 L 4080.84 3365.275 L 4081.45 3365.475 L 4081.66 3365.685 L 4081.86 3366.095 L 4081.86 3366.505 L 4081.66 3366.915 L 4081.45 3367.115 L 4080.84 3367.315 L 4079 3367.315 M 4080.43 3367.315 L 4081.86 3369.565 M 4083.21 3366.095 L 4083.62 3365.885 L 4084.24 3365.275 L 4084.24 3369.565" fill="none"  stroke-width="0.6" c_note="note_pre" /></g><polyline points="4020 3428.0002 4020 3378" stroke-width="1"  stroke-linecap="round" fill="none" layerid="10" net="" id="gge321" locked="0" /><polyline points="4075 3433.0002 4025 3433.0002" stroke-width="1"  stroke-linecap="round" fill="none" layerid="10" net="" id="gge319" locked="0" /><polyline points="4080 3378 4080 3428.0002" stroke-width="1"  stroke-linecap="round" fill="none" layerid="10" net="" id="gge317" locked="0" /><polyline points="4025 3373 4075 3373" stroke-width="1"  stroke-linecap="round" fill="none" layerid="10" net="" id="gge315" locked="0" /><path d="M4075 3373A5 5 0 0 1 4080 3378" locked="0"  fill="none" stroke-width="1" c_helper_type="arc2" net="" layerid="10" id="gge316" /><path d="M4080 3428.0002A5 5 0 0 1 4075 3433.0002" locked="0"  fill="none" stroke-width="1" c_helper_type="arc2" net="" layerid="10" id="gge318" /><path d="M4025 3433.0002A5 5 0 0 1 4020 3428.0002" locked="0"  fill="none" stroke-width="1" c_helper_type="arc2" net="" layerid="10" id="gge320" /><path d="M4020 3378A5 5 0 0 1 4025 3373" locked="0"  fill="none" stroke-width="1" c_helper_type="arc2" net="" layerid="10" id="gge322" /></svg>